/* XPM */
static char *faad2fd7a186453ca72d5643b649846fnZiRIrMBg6BTkV7F[] = {
/* columns rows colors chars-per-pixel */
"38 38 10 1 ",
"  c gray1",
". c #080A0B",
"X c #141B1B",
"o c #3B3643",
"O c #5F7160",
"+ c #5E777F",
"@ c #F1C471",
"# c #799AA4",
"$ c #79B8CE",
"% c #F2EAF1",
/* pixels */
"XXXXXXXXXXXXXXXXXXXXXXXXXXXXXXXXXXXXXX",
"XXXXXXXXXXXXXXXXXXXXXXXXXXXXXXXXXXXXXX",
"XXXXXXXXXXXXXXXXXXXXXXXXXXXXXXXXXXXXXX",
"XXXXXXXXXXXXXXXXXXXXXXXXXXXXXXXXXXXXXX",
"XXXXXXXXXXXXXXX%%%%%%%%%$XXXXXXXXXXXXX",
"XXXXXXXXXXXXX%%%%%%%%%%%%%$XXXXXXXXXXX",
"XXXXXXXXXXXX%%%%%%%%%%%%%%%$XXXXXXXXXX",
"XXXXXXXXXXX$%%%%%%%%%%%%%%%$$XXXXXXXXX",
"XXXXXXXXXX$$%%%%%%%%%%%%%%%$$$XXXXXXXX",
"XXXXXXXXXX$@%%%%%%%%%%%%%%%$$$OXXXXXXX",
"XXXXXXXXX$@@$%%%%%%%%%%%%%$$$$OXXXXXXX",
"XXXXXXXXX$@@$$$%%%%%%%%%$$$$$$OXXXXXXX",
"XXXXXXXX$$@@@@$$$$$$$@$$$$$$$$OXXXXXXX",
"XXXXXXXO$$@@@@@@$$$$@@$$$$$$$OOOXXXXXX",
"XXXXXXXOO$O@@@@@@@@@@@O$$$$$O$OOOXXXXX",
"XXXXXX$OOOOO@@@@@@@@@@O$$$$O$$$$OOXXXX",
"XXXXXO$$OOXXXOO@@@@@OO$$$$O$$$$$$OXXXX",
"XXXXXO$$OXXXXXXXOOOOOO$$$$$$$$$$$OXXXX",
"XXXXXX$$OXXXXXXXXXXXX$$$$$$$$$$$XXXXXX",
"XXXXX$O$OOXXXXXXXXXXXO$$$$$$$$$XXOOXXX",
"XXXX$$OOOOXXXXXXXXXXXO$$$$$$$$O$$$OXXX",
"XXXX$$$$$XXXXXXXXXXXXO$$$$$$$O$$$$$XXX",
"XXXX$$$$OXXXXXXXXXXX$$$$$$$OO$$$$$$XXX",
"XXXXX$$OXXXO$$XXXXX$$$$$$OO$$$$$$$XXXX",
"XXXXXX+OXX$$$$$XXX$$$$$$$$$$$$$$$XXXXX",
"XXXXXXXXXO$$$$$$XX$$$$$$$$$$$$$$XXXXXX",
"XXXX$$XXXXO$$$$$OX$$$$$$$$$$$$$XXXXXXX",
"XXO$$$$XXXXX$$$OOXX$$$$$$$$$$XXXOOOXXX",
"XOOOOOOOOXXXX XXXXXX$$$$$#XXXXXOOOOOXX",
"XOOOO$$$OOOXXXXXXXXXXXXXXXX.OOOOOOOOOX",
"XOOO$$$$$OOOXXXXXXXXXXXXXXXOOOOOOOOOOX",
"XXOO$$$$%%OOXXXXOOOOXXOXXOOO$$$$$$$$OX",
"XXXX$$$$%%$$OOOO$$$$$$OOXOOO$$$$$$$$OX",
"XXOX$$$$$$$OOOO$$$$$$$OOXOOOO$$$$$$$OX",
"XXOXX$$$$$$OOoO$$$$$$$OOXOOOOO$%%$$OOX",
"XOOXX$$$$$OOOoO$$$$$$$OOXXOOOOO%%$OOOX",
"XOOXXX$$$$OOooO$$$$$$$OXXXXOOOOOOOOOXX",
"XOOOXXO$$$OOooO$$$$$$OOOOXXXOOOOOOOOXX"
};
