/* XPM */
static char *result[] = {
/* columns rows colors chars-per-pixel */
"32 32 5 1 ",
"  c #BABA30",
". c #FFBB00",
"X c yellow",
"o c #EEF069",
"O c None",
/* pixels */
"OOOOOOOOOOOOOOOOOOOOOOOOOOOOOOOO",
"OOOOOOOOOOOOOOOOOOOOOOOOOOOOOOOO",
"OOOOOOOOOOOOOOOOOOOOOOOOOOOOOOOO",
"OOOOOOOOOOOOO       OOOOOOOOOOOO",
"OOOOOOOOOO             OOOOOOOOO",
"OOOOOOOOO    ooooooo    OOOOOOOO",
"OOOOOOOO   ooooooooooo   OOOOOOO",
"OOOOOOO  ooooXXXXXXXoooo  OOOOOO",
"OOOOOO  oooXXXXXXXXXXXooo  OOOOO",
"OOOOO  oooXXXXXXXXXXXXXooo  OOOO",
"OOOO   ooXXXXXXXXXXXXXXXoo   OOO",
"OOOO  ooXXXX..XXXXX..XXXXoo  OOO",
"OOOO  ooXXXX..XXXXX..XXXXoo  OOO",
"OOO  ooXXXXX...XXX...XXXXXoo  OO",
"OOO  ooXXXXXX..XXX..XXXXXXoo  OO",
"OOO  ooXXXXXX...X...XXXXXXoo  OO",
"OOO  ooXXXXXXX.....XXXXXXXoo  OO",
"OOO  ooXXXXXXXX...XXXXXXXXoo  OO",
"OOO  ooXXXXXXX.....XXXXXXXoo  OO",
"OOO  ooXXXXXX.......XXXXXXoo  OO",
"OOOO  ooXXXXXXX...XXXXXXXoo  OOO",
"OOOO  ooXXXXX.......XXXXXoo  OOO",
"OOOO   ooXXXXX.....XXXXXoo   OOO",
"OOOOO  oooXXXXX...XXXXXooo  OOOO",
"OOOOOO  oooXXXXXXXXXXXooo  OOOOO",
"OOOOOOO  ooooXXXXXXXoooo  OOOOOO",
"OOOOOOOO   ooooooooooo   OOOOOOO",
"OOOOOOOOO    ooooooo    OOOOOOOO",
"OOOOOOOOOO             OOOOOOOOO",
"OOOOOOOOOOOOO       OOOOOOOOOOOO",
"OOOOOOOOOOOOOOOOOOOOOOOOOOOOOOOO",
"OOOOOOOOOOOOOOOOOOOOOOOOOOOOOOOO"
};
