/* XPM */
static char *result[] = {
/* columns rows colors chars-per-pixel */
"32 32 11 1 ",
"  c #26160B",
". c #391E0B",
"X c #542F17",
"o c gray35",
"O c gray50",
"+ c #ED1C24",
"@ c #FF7F27",
"# c #FFC90E",
"$ c #FFF200",
"% c #F7AB79",
"& c None",
/* pixels */
"&&&&&&&&&&&&&&&&&&&&&&&&&&&&&&&&",
"&&&&&&&&&&&+&&&&&&&&&&&&&&&&&&&&",
"&&&&&&&&&&#+&&&+@##&&&&&&&&&&&&&",
"&&&&&&&&&#%+@&@+#+&&&+&&&&&&&&&&",
"&&&&&&&&&@##+&#@#+&&++&&&&&&&&&&",
"&&&&&&&&&###@&&+@+@&+#&&&&&&&&&&",
"&&&&&&&&&+%#+%&@#%##+%&&&&&&&&&&",
"&&&&&&&&&++#@@#$+%#+%@&&&&&&&&&&",
"&&&&&&&&&@%+%@%%+@%+%&&&&&&&&&&&",
"&&&&&&&&&@+%@%$$$@%@X&&&&&&&&&&&",
"&&&&&&&&&&X#%@$$$$%XX&&&&&&&&&&&",
"&&&&&&&&&&XXX@$$$@@XX&&&&&&&&&&&",
"&&&&&&&&&&XXXXXXXXXXX&&&&&&&&&&&",
"&&&&&&&&&&X. ... ..XX&&&&&&&&&&&",
"&&&&&&&&&&X.. .. ..X&&&&&&&&&&&&",
"&&&&&&&&&&X.. .. ..X&&&&&&&&&&&&",
"&&&&&&&&&&&X. .  XX&&&&&&&&&&&&&",
"&&&&&&&&&&&&. . .X&&&&&&&&&&&&&&",
"&&&&&&&&&&&X. . .XX&&&&&&&&&&&&&",
"&&&&&&&&&&oOOOOOOOOO&&&&&&&&&&&&",
"&&&&&&&&&&oooOOOOOOO&&&&&&&&&&&&",
"&&&&&&&&&&&oooooooo&&&&&&&&&&&&&",
"&&&&&&&&&&&X. .. .X&&&&&&&&&&&&&",
"&&&&&&&&&&&X. .. .X&&&&&&&&&&&&&",
"&&&&&&&&&&&X. .  .X&&&&&&&&&&&&&",
"&&&&&&&&&&&X.   .X&&&&&&&&&&&&&&",
"&&&&&&&&&&&oOOOOOOO&&&&&&&&&&&&&",
"&&&&&&&&&&&ooOOOOOO&&&&&&&&&&&&&",
"&&&&&&&&&&&&oooooo&&&&&&&&&&&&&&",
"&&&&&&&&&&&&&    &&&&&&&&&&&&&&&",
"&&&&&&&&&&&&&   &&&&&&&&&&&&&&&&",
"&&&&&&&&&&&&&&  &&&&&&&&&&&&&&&&"
};
