/* XPM */
static char *result[] = {
/* columns rows colors chars-per-pixel */
"32 32 7 1 ",
"  c black",
". c #210E03",
"X c #3A383A",
"o c #532B10",
"O c #6B3517",
"+ c #3D46CD",
"@ c None",
/* pixels */
"@@@@@@@@@@@@@@@@@@@@@@@@@@@@@@@@",
"@@@@@@@@@@............@@@@@@@@@@",
"@@@@@@@@................@@@@@@@@",
"@@@@@@@...OOOOOooOO. ....@@@@@@@",
"@@@@@@...OOOOOOooOO.  ....@@@@@@",
"@@@@@....OOOOOOooOO.   ....@@@@@",
"@@@@@...OOoOOOOooOO.    ...@@@@@",
"@@@@@..OOOoOOOOooOo.     ..@@@@@",
"@@@@@.XXXOoOOOOooOo.     X.@@@@@",
"@@@@@.XXXOoOOOOooOo.     X.@@@@@",
"@@@@@..OOOOoOOOooOo.     ..@@@@@",
"@@@@@..OOoOoOOOooOo.     ..@@@@@",
"@@@@@..OOoOoOOOooOO.     ..@@@@@",
"@@@@@..OOoOoOOOooOO.     ..@@@@@",
"@@@@@..OOoOoOOOooOO.     ..@@@@@",
"@@@@@..OOoOoOOOooOO.     ..@@@@@",
"@@@@@..OOoOoOOOooOO.     ..@@@@@",
"@@@@@..OOoOoOOOooOO.     ..@@@@@",
"@@@@@..OOoOOoOOoo+O.     ..@@@@@",
"@@@@@..OOoOOoOOo+O+.     ..@@@@@",
"@@@@@..OOOoOoOOoo+O.     ..@@@@@",
"@@@@@..OOOoOoOOooOo.     ..@@@@@",
"@@@@@..OOOoOoOOooOo.     ..@@@@@",
"@@@@@..OOOoOoOOooOO.     ..@@@@@",
"@@@@@..OOOoOoOOooOO.     ..@@@@@",
"@@@@@..OOOoOoOOooOO.     ..@@@@@",
"@@@@@..OOOoOOoOooOO.     ..@@@@@",
"@@@@@..OOOoOOoOooOO.     ..@@@@@",
"@@@@@..OOOOOOoOooOO.     ..@@@@@",
"@@@@@..XXXOOOoOooOO.     X.@@@@@",
"@@@@@.XXXXOOOOOooOO.     X.@@@@@",
"@@@@@..OOOOOOOOooOO.     ..@@@@@"
};
