/* XPM */
static char *result[] = {
/* columns rows colors chars-per-pixel */
"32 32 6 1 ",
"  c black",
". c #210E03",
"X c #3A383A",
"o c #532B10",
"O c #6B3517",
"+ c None",
/* pixels */
"++++++++++++++++++++++++++++++++",
"++++++++++............++++++++++",
"++++++++................++++++++",
"+++++++...OO.        ....+++++++",
"++++++...OOO.         ....++++++",
"+++++....OOO.          ....+++++",
"+++++...OOoO.           ...+++++",
"+++++..OOOoO.            ..+++++",
"+++++.XXXOoO.            X.+++++",
"+++++.XXXOoO.            X.+++++",
"+++++..OOOOo.            ..+++++",
"+++++..OOoOo.            ..+++++",
"+++++..OOoOo.            ..+++++",
"+++++..OOoOo.            ..+++++",
"+++++..OOoOo.            ..+++++",
"+++++..OOoOo.            ..+++++",
"+++++..OOoOo.            ..+++++",
"+++++..OOoOo.            ..+++++",
"+++++..OOoOO.            ..+++++",
"+++++..OOoOO.            ..+++++",
"+++++..OOOoO.            ..+++++",
"+++++..OOOoO.            ..+++++",
"+++++..OOOoO.            ..+++++",
"+++++..OOOoO.            ..+++++",
"+++++..OOOoO.            ..+++++",
"+++++..OOOoO.            ..+++++",
"+++++..OOOoO.            ..+++++",
"+++++..OOOoO.            ..+++++",
"+++++..OOOOO.            ..+++++",
"+++++..XXXOO.            X.+++++",
"+++++.XXXXOO.            X.+++++",
"+++++..OOOOO.            ..+++++"
};
