/* XPM */
static char *result[] = {
/* columns rows colors chars-per-pixel */
"32 32 6 1 ",
"  c #26160B",
". c #3D3B3D",
"X c #542F17",
"o c #6B381D",
"O c #3F48CC",
"+ c None",
/* pixels */
"++++++++++++++++++++++++++++++++",
"++++++++++            ++++++++++",
"++++++++                ++++++++",
"+++++++   oooooXXoooo    +++++++",
"++++++   ooooooXXooXoo    ++++++",
"+++++    ooooooXXooXooo    +++++",
"+++++   ooXooooXXoooXooo   +++++",
"+++++  oooXooooXXoXoXoooo  +++++",
"+++++ ...oXooooXXoXoXoo... +++++",
"+++++ ...oXooooXXoXoXoo... +++++",
"+++++  ooooXoooXXoXooXooo  +++++",
"+++++  ooXoXoooXXoXooXooo  +++++",
"+++++  ooXoXoooXXooXoXooo  +++++",
"+++++  ooXoXoooXXooXoXooo  +++++",
"+++++  ooXoXoooXXooXooXoo  +++++",
"+++++  ooXoXoooXXooXooXoo  +++++",
"+++++  ooXoXoooXXoooOOOoo  +++++",
"+++++  ooXoXoooXXooOOoOOo  +++++",
"+++++  ooXooXooXXooOoooOo  +++++",
"+++++  ooXooXooXXooOoooOo  +++++",
"+++++  oooXoXooXXooOOoOOo  +++++",
"+++++  oooXoXooXXoXoOOOoo  +++++",
"+++++  oooXoXooXXoXoooooo  +++++",
"+++++  oooXoXooXXooXoXooo  +++++",
"+++++  oooXoXooXXooXoXooo  +++++",
"+++++  oooXoXooXXooXooXoo  +++++",
"+++++  oooXooXoXXoooXoXoo  +++++",
"+++++  oooXooXoXXoooXoXoo  +++++",
"+++++  ooooooXoXXoooXooXo  +++++",
"+++++  ...oooXoXXooooXoX.. +++++",
"+++++ ....oooooXXooooXo... +++++",
"+++++  ooooooooXXoooooooo  +++++"
};
