/* XPM */
static char *result[] = {
/* columns rows colors chars-per-pixel */
"32 32 10 1 ",
"  c black",
". c #303E59",
"X c #374869",
"o c #515A73",
"O c #58627F",
"+ c #E58644",
"@ c #FFA660",
"# c #B3ACB0",
"$ c white",
"% c None",
/* pixels */
"%%%%%%%%%%%%%%%  %%%%%%%%%%%%%%%",
"%%%%%%%%%%%%%% X %%%%%%%%%%%%%%%",
"%%%%%%%%%%%%% X %% %%%%%%%%%%%%%",
"%%%%%%%%%%%% X %%  %%%%%%%%%%%%%",
"%%%%%%%%%%%% X % X %%%  %%%%%%%%",
"%%%%%%%%%%% XX % X %% # %%%%%%%%",
"%%%%%%%%%%% XX  XX % # %%%%%%%%%",
"%%%%%%%%%%% XX XXX  # %%%%%%%%%%",
"%%%%%%%%%%% XXXXXX # %%%%%%%%%%%",
"%%%%%%%%%%% XXXXXXX %%%%%%%%%%%%",
"%%%%%%%%%%% XXXXXXXX %%%%%%%%%%%",
"%%%%%%%%%% XXXXXXXXX %%%%%%%%%%%",
"%%%%%%%%%%  XXX  XXX %%%%%%%%%%%",
"%%%%%%%%%% @ X @+ X. %%%%%%%%%%%",
"%%%%%%%%%% + . ++ . %%%%%%%%%%%%",
"%%%%%%%%% #  $$  . X %%%%%%%%%%%",
"%%%%%%%% ## X     XXX %%%%%%%%%%",
"%%%%%%%%  # X XXXXXXXX %%%%%%%%%",
"%%%%%%% #  % o        %%%%%%%%%%",
"%%%%%% # %   oooooo  %%%%%%%%%%%",
"%%%%%%  %%% O        %%%%%%%%%%%",
"%%%%%%%%%%% OOOOOO % %%%%%%%%%%%",
"%%%%%%%%%%%%      %% %%%%%%%%%%%",
"%%%%%%%%%%%% ooo %%% %%%%%%%%%%%",
"%%%%%%%%%%%%%   %%  %%%%%%%%%%%%",
"%%%%%%%%%%%%% % %   %%%%%%%%%%%%",
"%%%%%%%%%%%%% % %%  %%%%%%%%%%%%",
"%%%%%%%%%%%%%% % %% %%%%%%%%%%%%",
"%%%%%%%%%%%%%% % %%%%%%%%%%%%%%%",
"%%%%%%%%%%%%%% % %%%%%%%%%%%%%%%",
"%%%%%%%%%%%%%% % %%%%%%%%%%%%%%%",
"%%%%%%%%%%%%%% % %%%%%%%%%%%%%%%"
};
