/* XPM */
static char *_986fbc01645414dff6df2d98423b32283g7BdvVw9Ih6rsX[] = {
/* columns rows colors chars-per-pixel */
"32 32 7 1 ",
"  c None",
". c #2A1D0D",
"X c #F2AC29",
"o c #3C9F9C",
"O c #66D1A6",
"+ c #BDDEBA",
"@ c #F5DDA6",
/* pixels */
"                                ",
"                                ",
"                                ",
"                                ",
"                                ",
"                                ",
"                                ",
"                                ",
"              O O               ",
"          +   OOO   +           ",
"         ++   OOO   ++          ",
"        +  + @X@X@ +  +         ",
"            + @@@               ",
"              ooo               ",
"           @@@OOO@@@            ",
"             OOOOO              ",
"             OOOoO              ",
"            OOoOoOO             ",
"             @   @              ",
"             @   @              ",
"                                ",
"                                ",
"                                ",
"                                ",
"                                ",
"            ........            ",
"              ....              ",
"                                ",
"                                ",
"                                ",
"                                ",
"                                "
};
