/* XPM */
static char *result[] = {
/* columns rows colors chars-per-pixel */
"32 32 15 1 ",
"  c black",
". c #A16240",
"X c #B97A57",
"o c #22B14C",
"O c #1EE656",
"+ c #F7AB79",
"@ c #1D769C",
"# c #3F48CC",
"$ c #7092BE",
"% c #6FD48A",
"& c #00A2E8",
"* c #7F86E3",
"= c #DBA88C",
"- c white",
"; c None",
/* pixels */
";;;;$*****;;;;;;;;;;;;;;;;;;;;;;",
"$$$$$********;;;;;;;;;;;;;;;;;;;",
";$$$************;;;;;;;;;;;;;;;;",
";;$$$$************;;;;;;;;;;;;;;",
";;;;;$$************;;;;;;;;;;;;;",
";;;;;;$*************;;;;;;;;;;;;",
";;;;;;$$*************;;;;;;;;;;;",
";;;;;$$$******************;;;;;;",
";;;;;$$$$$$$$$$$$$$$$$$$$$;;;;;;",
";;;;;$$$$$$$$$$=====+;;;;;;;;;;;",
";;;$$$$$$$======   ++;;;;;;%%O;;",
";;;$$$;;-=======+  ++;;;;;%%Oo;;",
";;;;;;;;-=========++++;;;;%OOo;;",
";;;;;;;;-==========---;;;Xooo;;;",
";;;;;;;;--------------;;XX.;;;;;",
";;;;;;;;--------------;XX.;;;;;;",
";;;;;;;;@@@-----------XX.;;;;;;;",
";;;;;;;###@@---------XX.;;;;;;;;",
";;;;;;;###&@@@@@@@@@XX.;;;;;;;;;",
";;;;;;####&&&&&@@&&XX.;;;;;;;;;;",
";;;;;;###&&&&&&&@&XX.&;;;;;;;;;;",
";;;;;;###&&&&&&&@XX.&&;;;;;;;;;;",
";;;;;;####&&&&&XX..&&&;;;;;;;;;;",
";;;;;;;####&&&XX.@&&&&;;;;;;;;;;",
";;;;;;;;####&XX.&@&&&&;;;;;;;;;;",
";;;;;;;;##++XX.&&@&&&&;;;;;;;;;;",
";;;;;;;;;#+++.&&&@&&&;;;;;;;;;;;",
";;;;;;;;XX++&&&&@@&&&;;;;;;;;;;;",
";;;;;;XXX.&&&&&&@&&&&;;;;;;;;;;;",
";;;;;XX..;&&&&&&@&&&&;;;;;;;;;;;",
";;;;...;;;@@@@@@@@@@@;;;;;;;;;;;",
";;;;;;;;;;;;;;;;;;;;;;;;;;;;;;;;"
};
