/* XPM */
static char *result[] = {
/* columns rows colors chars-per-pixel */
"75 80 14 1 ",
"  c #0C3F0F",
". c #190F20",
"X c #6D1823",
"o c #0F5314",
"O c #116116",
"+ c #3A4041",
"@ c #5B5168",
"# c #67940F",
"$ c #63AD45",
"% c #7EC262",
"& c #85BF13",
"* c #CEB7B9",
"= c #C9B8BD",
"- c #EFECEC",
/* pixels */
"+++++++++++++++++++++++++++++++++++++++++++++++++++++++++++++++++++++++++++",
"+++++++++++++++++++++++++++++++++++++++++++++++++++++++++++++++++++++++++++",
"+++++++++++++++++++++++++++++++++++++++++++++++++++++++++++++++++++++++++++",
"+++++++++++++++++++++++++++++++++++++++++++++++++++++++++++++++++++++++++++",
"+++++++++++++++++++++++++++++++++++++++++++++++++++++++++++++++++++++++++++",
"+++++++++++++++++++++++++++++++++++++++++++++++++++++++++++++++++++++++++++",
"+++++++++++++++++++++++++++++++++++++++++++++++++++++++++++++++++++++++++++",
"+++++++++++++++++++++++++++++++++++++++++++++++++++++++++++++++++++++++++++",
"+++++++++++++++++++++++++++++++++++++++++++++++++++++++++++++++++++++++++++",
"+++++++++++++++++++++++++++++++++++++++++++++++++++++++++++++++++++++++++++",
"+++++++++++++++++++++++++++++++++++++++++++++++++++++++++++++++++++++++++++",
"+++++++++++++++++++++++++++++++++++++++++++++++++++++++++++++++++++++++++++",
"+++++++++++++++++++++++++++++++++++++++++++++++++++++++++++++++++++++++++++",
"++++++++++++++++++++++++++++++++++XXXXXXXX+++++++++++++++++++++++++++++++++",
"+++++++++++++++++++++++++++++++++XXXXXXXXXX++++++++++++++++++++++++++++++++",
"++++++++++++++++++++++++++++++++XXXXXX....XX+++++++++++++++++++++++++++++++",
"+++++++++++++++++++++++++++++++XXXXXXXXX...XX++++++++++++++++++++++++++++++",
"++++++++++++++++++++++++++++++XXXXXXXXXXX...X++++++++++++++++++++++++++++++",
"++++++++++++++++++++++++++++++X.XXXXX.XXXX.XX++++++++++++++++++++++++++++++",
"++++++++++++++++++++++++++++++X.XXXXX..XX..+X++++++++++++++++++++++++++++++",
"++++++++++++++++++++++++++++++X..XXX...X...+X++++++++++++++++++++++++++++++",
"++++++++++++++++++++++++++++++X........XX...X++++++++++++++++++++++++++++++",
"++++++++++++++++++++++++++++++X........XXX..X++++++++++++++++++++++++++++++",
"+++++++++++++++++++++++++++++XX........XXX...++++++++++++++++++++++++++++++",
"+++++++++++++++++++++++++++++X..--.--...XXX..++++++++++++++++++++++++++++++",
"+++++++++++++++++++++++++++++X...........XX...+++++++++++++++++++++++++++++",
"+++++++++++++++++++++++++++++X...........XX...+++++++++++++++++++++++++++++",
"+++++++++++++++++++++++++++++X...........XX...+++++++++++++++++++++++++++++",
"++++++++++++++++++++++++++++XXX.........XXX....++++++++++++++++++++++++++++",
"++++++++++++++++++++++++++++XXX........XXX.....++++++++++++++++++++++++++++",
"++++++++++++++++++++++++++++XXXX......XXXX...XXX+++++++++++++++++++++++++++",
"+++++++++++++++++++++++++++..XXXX....XXXX...XXXX+++++++++++++++++++++++++++",
"++++++++++++++++++++++++++XX..XXX...XXXX...XXXXXX++++++++++++++++++++++++++",
"++++++++++++++++++++++++++XXX..XX.X.XXXX..XXXXXXXX+++++++++++++++++++++++++",
"+++++++++++++++++++++++++XXXXX..X.XX.XX..XX.XXXXXX+++++++++++++++++++++++++",
"+++++++++++++++++++++++++XXXXXXX..XX.X..XXX.XXXXXXX++++++++++++++++++++++++",
"++++++++++++++++++++++++XXXXXXXX..XX.XXXXXX..XXXXXX++++++++++++++++++++++++",
"+++++++++++++++++++++++XXXX.XXX.XXXX.XXXXXX......XX++++++++++++++++++++++++",
"+++++++++++++++++++++++XXXX.XXXXXXXX.XXXXX.....XX.XX+++++++++++++++++++++++",
"++++++++++++++++++++++XXXXX.X.XXXXXXXXXXX...XX..XXXX+++++++++++++++++++++++",
"++++++++++++++++++++++XXXXX.X.XXXXXXXXXX...XXXX.XXXX+++++++++++++++++++++++",
"++++++++++++++++++++++XXXXX.X..XXXXXXXX.XXXXXXX.XXXX+++++++++++++++++++++++",
"++++++++++++++++++++++XXXXXXXX.X.XXXXX.XXXXXXXXXXXX.+++++++++++++++++++++++",
"++++++++++++++++++++++XXXX.....X.XXXX====@.XXXXXXX..+++++++++++++++++++++++",
"+++++++++++++++++++++++XX.XXX..X.XXX----=@.XXXXXX...+++++++++++++++++++++++",
"+++++++++++++++++++++++X.X....X..XX =--- $.XXXXX....+++++++++++++++++++++++",
"+++++++++++++++++++++++XX..XXXX.XXX =*=*.$.XXXX....++++++++++++++++++++++++",
"+++++++++++++++++++++++X..XXX.X.X.. XX...$.XXXX....++++++++++++++++++++++++",
"++++++++++++++++++++++++.XXXX...X..X X..$..XXX.....++++++++++++++++++++++++",
"+++++++++++++++++++++++.XXXXX...X..XX  $...XX.....+++++++++++++++++++++++++",
"+++++++++++++++++++++++.XXXXXX..X..XXX ...XX......+++++++++++++++++++++++++",
"++++++++++++++++++++++++.XXX.X...X.XXoO%..XX......+++++++++++++++++++++++++",
"+++++++++++++++++++++++++.X..XX..X.XoOOO%.X......++++++++++++++++++++++++++",
"++++++++++++++++++++++++++XX.XX..X.Xo&#O%........++++++++++++++++++++++++++",
"++++++++++++++++++++++++++XX.XX....Xo&#O%........++++++++++++++++++++++++++",
"++++++++++++++++++++++++++XX.XX.X..Xo&#O%........++++++++++++++++++++++++++",
"+++++++++++++++++++++++++++X.XX....XoOOO%...+....++++++++++++++++++++++++++",
"++++++++++++++++++++++++++++..X.X..X.oO%...++...+++++++++++++++++++++++++++",
"++++++++++++++++++++++++++++..X.X..X.X.....+....+++++++++++++++++++++++++++",
"+++++++++++++++++++++++++++++.XXX..X.X.....++..++++++++++++++++++++++++++++",
"++++++++++++++++++++++++++++++.XX..X.X.....++..++++++++++++++++++++++++++++",
"++++++++++++++++++++++++++++++..X..X.X..+.++..+++++++++++++++++++++++++++++",
"+++++++++++++++++++++++++++++++.X..X+X...++..++++++++++++++++++++++++++++++",
"+++++++++++++++++++++++++++++++....X+X..+++.+++++++++++++++++++++++++++++++",
"++++++++++++++++++++++++++++++++...XXX+.++..+++++++++++++++++++++++++++++++",
"++++++++++++++++++++++++++++++++++..XX+.+++++++++++++++++++++++++++++++++++",
"+++++++++++++++++++++++++++++++++++++XX++++++++++++++++++++++++++++++++++++",
"++++++++++++++++++++++++++++++++++++++X++++++++++++++++++++++++++++++++++++",
"+++++++++++++++++++++++++++++++++++++X+++++++++++++++++++++++++++++++++++++",
"+++++++++++++++++++++++++++++++++++++++++++++++++++++++++++++++++++++++++++",
"+++++++++++++++++++++++++++++++++++++++++++++++++++++++++++++++++++++++++++",
"+++++++++++++++++++++++++++++++++++++++++++++++++++++++++++++++++++++++++++",
"+++++++++++++++++++++++++++++++++++++++++++++++++++++++++++++++++++++++++++",
"+++++++++++++++++++++++++++++++++++++++++++++++++++++++++++++++++++++++++++",
"+++++++++++++++++++++++++++++++++++++++++++++++++++++++++++++++++++++++++++",
"+++++++++++++++++++++++++++++++++++++++++++++++++++++++++++++++++++++++++++",
"+++++++++++++++++++++++++++++++++++++++++++++++++++++++++++++++++++++++++++",
"+++++++++++++++++++++++++++++++++++++++++++++++++++++++++++++++++++++++++++",
"+++++++++++++++++++++++++++++++++++++++++++++++++++++++++++++++++++++++++++",
"+++++++++++++++++++++++++++++++++++++++++++++++++++++++++++++++++++++++++++"
};
