/* XPM */
static char *result[] = {
/* columns rows colors chars-per-pixel */
"32 32 11 1 ",
"  c #12061A",
". c #043D06",
"X c #030421",
"o c #373E3F",
"O c #6D111E",
"+ c #06520C",
"@ c #08610E",
"# c #5B5068",
"$ c #679506",
"% c #63AE43",
"& c #CAB9BE",
/* pixels */
"XXXXXXXXXXXXXXXXXXXXXXXXXXXXXXXX",
"XXXXXXXXXXXXXXXXXXXXXXXXXXXXXXXX",
"XXXXXXXXXXXXXXXXXXXXXXXXXXXXXXXX",
"XXXXXXXXXXXXXXXXXXXXXXXXXXXXXXXX",
"XXXXXXXXXXXXXXXXXXXXXXXXXXXXXXXX",
"XXXXXXXXXXXXXXXOOOXXXXXXXXXXXXXX",
"XXXXXXXXXXXXXOOOO OXXXXXXXXXXXXX",
"XXXXXXXXXXXXX OOOOOXXXXXXXXXXXXX",
"XXXXXXXXXXXXX      XXXXXXXXXXXXX",
"XXXXXXXXXXXXO    O XXXXXXXXXXXXX",
"XXXXXXXXXXXXO    O  XXXXXXXXXXXX",
"XXXXXXXXXXXXO    O  XXXXXXXXXXXX",
"XXXXXXXXXXXXOO  O  OXXXXXXXXXXXX",
"XXXXXXXXXXXO O OO OOOXXXXXXXXXXX",
"XXXXXXXXXXOOOO  OO OOOXXXXXXXXXX",
"XXXXXXXXXXOOOOO OO  OOXXXXXXXXXX",
"XXXXXXXXXOOO OOOOOOOOOXXXXXXXXXX",
"XXXXXXXXXOO  OOO&#OOO XXXXXXXXXX",
"XXXXXXXXXXO O O&&%OO  XXXXXXXXXX",
"XXXXXXXXXX O   .  OO  XXXXXXXXXX",
"XXXXXXXXXX OO OO@ O  XXXXXXXXXXX",
"XXXXXXXXXXXOO O+$    XXXXXXXXXXX",
"XXXXXXXXXXXXO  +@    XXXXXXXXXXX",
"XXXXXXXXXXXX      X XXXXXXXXXXXX",
"XXXXXXXXXXXXX     X XXXXXXXXXXXX",
"XXXXXXXXXXXXX  o X XXXXXXXXXXXXX",
"XXXXXXXXXXXXXXXXOXXXXXXXXXXXXXXX",
"XXXXXXXXXXXXXXXXXXXXXXXXXXXXXXXX",
"XXXXXXXXXXXXXXXXXXXXXXXXXXXXXXXX",
"XXXXXXXXXXXXXXXXXXXXXXXXXXXXXXXX",
"XXXXXXXXXXXXXXXXXXXXXXXXXXXXXXXX",
"XXXXXXXXXXXXXXXXXXXXXXXXXXXXXXXX"
};
