/* XPM */
static char *result[] = {
/* columns rows colors chars-per-pixel */
"75 80 16 1 ",
"  c #0C3F0F",
". c #190F20",
"X c #6D1823",
"o c #0F5314",
"O c #116116",
"+ c #3A4041",
"@ c #5B5168",
"# c #D64F5D",
"$ c #67940F",
"% c #63AD45",
"& c #7EC262",
"* c #85BF13",
"= c #CEB7B9",
"- c #C9B8BD",
"; c #EFECEC",
": c #F7F6F7",
/* pixels */
"+++++++++++++++++++++++++++++++++++++++++++++++++++++++++++++++++++++++++++",
"+++++++++++++++++++++++++++++++++++++++++++++++++++++++++++++++++++++++++++",
"+++++++++++++++++++++++++++++++++++++++++++++++++++++++++++++++++++++++++++",
"+++++++++++++++++++++++++++++++++++++++++++++++++++++++++++++++++++++++++++",
"+++++++++++++++++++++++++++++++++++++++++++++++++++++++++++++++++++++++++++",
"+++++++++++++++++++++++++++++++++++++++++++++++++++++++++++++++++++++++++++",
"+++++++++++++++++++++++++++++++++++++++++++++++++++++++++++++++++++++++++++",
"+++++++++++++++++++++++++++++++++++++++++++++++++++++++++++++++++++++++++++",
"+++++++++++++++++++++++++++++++++++++++++++++++++++++++++++++++++++++++++++",
"+++++++++++++++++++++++++++++++++++++++++++++++++++++++++++++++++++++++++++",
"+++++++++++++++++++++++++++++++++++++++++++++++++++++++++++++++++++++++++++",
"+++++++++++++++++++++++++++++++++++++++++++++++++++++++++++++++++++++++++++",
"++++++++++++++++++++++++++++++++++++XXXXXXXX+++++++++++++++++++++++++++++++",
"+++++++++++++++++++++++++++++++++++XXXXXXXXXX++++++++++++++++++++++++++++++",
"++++++++++++++++++++++++++++++++++XXXXXX....XX+++++++++++++++++++++++++++++",
"+++++++++++++++++++++++++++++++++XXXXXXXXX...XX++++++++++++++++++++++++++++",
"++++++++++++++++++++++++++++++++XXXXXXXXXXX...XX+++++++++++++++++++++++++++",
"++++++++++++++++++++++++++++++++X.XXXXX.XXXX.XXX+++++++++++++++++++++++++++",
"++++++++++++++++++++++++++++++++X.XXXXX..XX..++X+++++++++++++++++++++++++++",
"++++++++++++++++++++++++++++++++X..XXX...X...++X+++++++++++++++++++++++++++",
"++++++++++++++++++++++++++++++++X........XX...+X+++++++++++++++++++++++++++",
"++++++++++++++++++++++++++++++++X........XXX..+X+++++++++++++++++++++++++++",
"+++++++++++++++++++++++++++++++XX........XXX...++++++++++++++++++++++++++++",
"+++++++++++++++++++++++++++++++X..;;.;;...XXX..++++++++++++++++++++++++++++",
"+++++++++++++++++++++++++++++++X...........XX...+++++++++++++++++++++++++++",
"+++++++++++++++++++++++++++++++X...........XX...+++++++++++++++++++++++++++",
"+++++++++++++++++++++++++++++++X...........XX...+++++++++++++++++++++++++++",
"++++++++++++++++++++++++++++++XXX.........XXX....++++++++++++++++++++++++++",
"++++++++++++++++++++++++++++++XXX........XXX.....++++++++++++++++++++++++++",
"+++++++++++++++++++++++++++++.XXXX......XXXX..XX..+++++++++++++++++++++++++",
"++++++++++++++++++++++++++++X..XXXX....XXXX...XXXX+++++++++++++++++++++++++",
"+++++++++++++++++++++++++++XXX..XXX...XXXX...XXXXXX++++++++++++++++++++++++",
"+++++++++++++++++++++:++++.#XXX..XX.X.XXXX..XXXXXXXX+++++++++++++++++++++++",
"+++++++++++++++++++++++++...XXXX..X.XX.XX..XX.XXXXXX+++++++++++++++++++++++",
"++++++++++++++++++++++++.....XXXXX...X.X..XXX..XXXXXX++++++++++++++++++++++",
"++++++++++++++++++++=;=.#XXX.XXXXXXXX.X.XXXXX..XXXXXX++++++++++++++++++++++",
"++++++++++++++++++++=;;=XXXXX.XXXXXXX.XX.XXXXX.....XX++++++++++++++++++++++",
"++++++++++++++++++++=;;;@@XXX.XXXXXXXXXXXXXXX....XX.XX+++++++++++++++++++++",
"+++++++++++++++++++++--@..XXX.X.XXXXXXXXXXXX..XX..XXXX+++++++++++++++++++++",
"+++++++++++++++++++++++X..XXX.X.XXXXXXXXXX...XXXX.XXXX+++++++++++++++++++++",
"+++++++++++++++++++++++X..XXX.X..XXXXXXXX.XXXXXXX.XXXX+++++++++++++++++++++",
"+++++++++++++++++++++++X..XXXXXX.X.XXXXX.XXXXXXXXXXXX.+++++++++++++++++++++",
"+++++++++++++++++++++++X..XX.XX..X.XXXX----@.XXXXXXX..+++++++++++++++++++++",
"+++++++++++++++++++++++X..XX.XX..X.XXX;;;;-@.XXXXXX...+++++++++++++++++++++",
"+++++++++++++++++++++++X..XX.XX.X..XX -;;; %.XXXXX....+++++++++++++++++++++",
"+++++++++++++++++++++++X..X..XXXX.XXX X=-=.%.XXXX....++++++++++++++++++++++",
"+++++++++++++++++++++++X..X..XX.X.X.. XX...%.XXXX....++++++++++++++++++++++",
"++++++++++++++++++++++++..X.....X.X..X X..%..XXX.....++++++++++++++++++++++",
"++++++++++++++++++++++++X.X....XXXX..XX  %...XX.....+++++++++++++++++++++++",
"++++++++++++++++++++++++X.X..XXXXXX..XXX ...XX......+++++++++++++++++++++++",
"++++++++++++++++++++++++X.XX..XXXX.X.XXoO&..XX......+++++++++++++++++++++++",
"++++++++++++++++++++++++X++X...XXX.X.XoOOO&.X......++++++++++++++++++++++++",
"++++++++++++++++++++++++X+XX+..XX..X.Xo*$O&........++++++++++++++++++++++++",
"+++++++++++++++++++++++XX++++..XX....Xo*$O&........++++++++++++++++++++++++",
"++++++++++++++++++++++++++++++.XX.X..Xo*$O&........++++++++++++++++++++++++",
"++++++++++++++++++++++++++++++.XX....XoOOO&...+....++++++++++++++++++++++++",
"++++++++++++++++++++++++++++++..X.X..X.oO&....++...++++++++++++++++++++++++",
"++++++++++++++++++++++++++++++..X.X..X.X......+++..++++++++++++++++++++++++",
"+++++++++++++++++++++++++++++++.XXX..X.X......+++..++++++++++++++++++++++++",
"++++++++++++++++++++++++++++++++.XX..X.X....+.+++..++++++++++++++++++++++++",
"++++++++++++++++++++++++++++++++..X..X.X..+.+.+++..++++++++++++++++++++++++",
"+++++++++++++++++++++++++++++++++.X..X+X..+++++++.+++++++++++++++++++++++++",
"+++++++++++++++++++++++++++++++++....X+X..+++++++.+++++++++++++++++++++++++",
"++++++++++++++++++++++++++++++++++...XXX+.++++++..+++++++++++++++++++++++++",
"++++++++++++++++++++++++++++++++++++..XX+.++++++.++++++++++++++++++++++++++",
"+++++++++++++++++++++++++++++++++++++++XX++++++++++++++++++++++++++++++++++",
"++++++++++++++++++++++++++++++++++++++++X++++++++++++++++++++++++++++++++++",
"+++++++++++++++++++++++++++++++++++++++X+++++++++++++++++++++++++++++++++++",
"+++++++++++++++++++++++++++++++++++++++++++++++++++++++++++++++++++++++++++",
"+++++++++++++++++++++++++++++++++++++++++++++++++++++++++++++++++++++++++++",
"+++++++++++++++++++++++++++++++++++++++++++++++++++++++++++++++++++++++++++",
"+++++++++++++++++++++++++++++++++++++++++++++++++++++++++++++++++++++++++++",
"+++++++++++++++++++++++++++++++++++++++++++++++++++++++++++++++++++++++++++",
"+++++++++++++++++++++++++++++++++++++++++++++++++++++++++++++++++++++++++++",
"+++++++++++++++++++++++++++++++++++++++++++++++++++++++++++++++++++++++++++",
"+++++++++++++++++++++++++++++++++++++++++++++++++++++++++++++++++++++++++++",
"+++++++++++++++++++++++++++++++++++++++++++++++++++++++++++++++++++++++++++",
"+++++++++++++++++++++++++++++++++++++++++++++++++++++++++++++++++++++++++++",
"+++++++++++++++++++++++++++++++++++++++++++++++++++++++++++++++++++++++++++",
"+++++++++++++++++++++++++++++++++++++++++++++++++++++++++++++++++++++++++++"
};
