/* XPM */
static char *result[] = {
/* columns rows colors chars-per-pixel */
"32 32 11 1 ",
"  c #12061A",
". c #030421",
"X c #373E3F",
"o c #6D111E",
"O c #06520C",
"+ c #08610E",
"@ c #5B5068",
"# c #63AE43",
"$ c #7FC362",
"% c #CAB9BE",
"& c #EFEDED",
/* pixels */
"................................",
"................................",
"................................",
"................................",
"................................",
"...............oooo.............",
"..............oooo  ............",
".............. ooo .............",
"..............   oo ............",
".............o  & o ............",
".............o    o ............",
".............o   oo  ...........",
"............o o oo ooo..........",
"........... oo o  o oo..........",
".........&oo ooooooo  o.........",
".........% o  ooooo  oo.........",
".......... oooooooooooo.........",
".......... oo oo&&@ooo .........",
".......... oo   o #oo  .........",
"..........oo oo o# o  ..........",
"..........o. oo O+    ..........",
"..........o. o  O+    ..........",
".............    $    ..........",
"............. o     . ..........",
"..............  X ..............",
"............... o .. ...........",
"................................",
"................................",
"................................",
"................................",
"................................",
"................................"
};
