/* XPM */
static char *result[] = {
/* columns rows colors chars-per-pixel */
"75 80 18 1 ",
"  c #0C3F0F",
". c #190F20",
"X c #6D1823",
"o c #0F5314",
"O c #116116",
"+ c #3A4041",
"@ c #5B5168",
"# c #C2360F",
"$ c #D64F5D",
"% c #67940F",
"& c #63AD45",
"* c #7EC262",
"= c #85BF13",
"- c #D48A19",
"; c #CEB7B9",
": c #C9B8BD",
"> c #EFECEC",
", c #F8F8F8",
/* pixels */
"+++++++++++++++++++++++++++++++++++++++++++++++++++++++++++++++++++++++++++",
"+++++++++++++++++++++++++++++++++++++++++++++++++++++++++++++++++++++++++++",
"+++++++++++++++++++++++++++++++++++++++++++++++++++++++++++++++++++++++++++",
"+++++++++++++++++++++++++++++++++++++++++++++++++++++++++++++++++++++++++++",
"+++++++++++++++++++++++++++++++++++++++++++++++++++++++++++++++++++++++++++",
"+++++++++++++++++++++++++++++++++++++++++++++++++++++++++++++++++++++++++++",
"+++++++++++++++++++++++++++++++++++++++++++++++++++++++++++++++++++++++++++",
"+++++++++++++++++++++++++++++++++++++++++++++++++++++++++++++++++++++++++++",
"+++++++++++++++++++++++++++++++++++++++++++++++++++++++++++++++++++++++++++",
"+++++++++++++++++++++++++++++++++++++++++++++++++++++++++++++++++++++++++++",
"+++++++++++++++++++++++++++++++++++++++++++++++++++++++++++++++++++++++++++",
"+++++++++++++++++++++++++++++++++++++++++++++++++++++++++++++++++++++++++++",
"++++++++++++++++++++++++++++++++++++$XXXXXXX+++++++++++++++++++++++++++++++",
"+++++++++++++++++++++++++++++++++++$XXXXXXXXX++++++++++++++++++++++++++++++",
"++++++++++++++++++++++++++++++++++$XXXXX....XX+++++++++++++++++++++++++++++",
"++++++++++++++++++++++-++++++++++$$XXXXXXX...XX++++++++++++++++++++++++++++",
"++++++++++++++++++++++++++++++++$$XXXXXXXXX...XX+++++++++++++++++++++++++++",
"+++++++++++++++++++++#++++++++++$.$XXXX.XXXX.XXX+++++++++++++++++++++++++++",
"++++++++++++++++++++++++++++++++$.$XXXX..XX..++X+++++++++++++++++++++++++++",
"++++++++++++++++++++++++++++++++$..$$X...X...++X+++++++++++++++++++++++++++",
"++++++++++++++++++++-+++++++++++$........XX...+X+++++++++++++++++++++++++++",
"+++++++++++++++++++++#++++++++++$........XXX..+X+++++++++++++++++++++++++++",
"+++++++++++++++++++++++++++++++$$........XXX...++++++++++++++++++++++++++++",
"+++++++++++++++++++++++++++++++$..>>.>>...XXX..++++++++++++++++++++++++++++",
"+++++++++++++++++++++++++++++++$...........XX...+++++++++++++++++++++++++++",
"+++++++++++++++++++++++++++++++$...........XX...+++++++++++++++++++++++++++",
"+++++++++++++++++++++++++++++++$...........XX...+++++++++++++++++++++++++++",
"++++++++++++++++++++#-++++++++$$X.........XXX....++++++++++++++++++++++++++",
"+++++++++++++++++++++-#+++++++$XX........XXX.....++++++++++++++++++++++++++",
"++++++++++++++++++++##-#+++++.$XXX......XXXX..XX..+++++++++++++++++++++++++",
"++++++++++++++++++++#-,-++++$..$$XX....XXXX...XXXX+++++++++++++++++++++++++",
"+++++++++++++++++++##-,-+++$XX..$XX...XXXX...XXXXXX++++++++++++++++++++++++",
"+++++++++++++++++++##,-#++.$XXX..XX.X.XXXX..XXXXXXXX+++++++++++++++++++++++",
"++++++++++++++++++++###++...$XXX..X.XX.XX..XX.XXXXXX+++++++++++++++++++++++",
"++++++++++++++++++++++++.....$XXXX..XX.X..XXX..XXXXXX++++++++++++++++++++++",
"++++++++++++++++++++;;>.$XXX.XXXXXX.XX.XXXXXX..XXXXXX++++++++++++++++++++++",
"++++++++++++++++++++;>>;$$XXX.XXXXX.XX.XXXXXXX.....XX++++++++++++++++++++++",
"++++++++++++++++++++;>>>@@$XX.XXXXXXXX.XXXXXX....XX.XX+++++++++++++++++++++",
"+++++++++++++++++++++::@..XXX.X.XXXXXXXXXXXX..XX..XXXX+++++++++++++++++++++",
"+++++++++++++++++++++++X..XXX.X.XXXXXXXXXX...XXXX.XXXX+++++++++++++++++++++",
"+++++++++++++++++++++++X..XXX.X..XXXXXXXX.XXXXXXX.XXXX+++++++++++++++++++++",
"+++++++++++++++++++++++X..XXXXXX.X.XXXXX.XXXXXXXXXXXX.+++++++++++++++++++++",
"+++++++++++++++++++++++X..XX.XX..X.XXXX::::@.XXXXXXX..+++++++++++++++++++++",
"+++++++++++++++++++++++X..XX.XX..X.XXX>>>>:@.XXXXXX...+++++++++++++++++++++",
"+++++++++++++++++++++++X.XXX.XX.X..XX :>>> &.XXXXX....+++++++++++++++++++++",
"+++++++++++++++++++++++X.XX..XXXX.XXX X;:;.&.XXXX....++++++++++++++++++++++",
"+++++++++++++++++++++++X.XX..XXXX.X.. XX...&.XXXX....++++++++++++++++++++++",
"++++++++++++++++++++++++.XX...XXXX.XXX X..&..XXX.....++++++++++++++++++++++",
"++++++++++++++++++++++++X.X...XX.X.X.XX  &...XX.....+++++++++++++++++++++++",
"++++++++++++++++++++++++X.X......X.X.XXX ...XX......+++++++++++++++++++++++",
"++++++++++++++++++++++++X.XX....XXXX.XXoO*..XX......+++++++++++++++++++++++",
"++++++++++++++++++++++++X++X..XXXXXX.XoOOO*.X......++++++++++++++++++++++++",
"++++++++++++++++++++++++X++X+..XXXX.XXo=%O*........++++++++++++++++++++++++",
"++++++++++++++++++++++++X++X+...XXX.XXo=%O*........++++++++++++++++++++++++",
"++++++++++++++++++++++++X++X++..XX..XXo=%O*........++++++++++++++++++++++++",
"++++++++++++++++++++++++X++X++..XX...XoOOO*...+....++++++++++++++++++++++++",
"++++++++++++++++++++++++X++++++.XX.X.X.oO*....++...++++++++++++++++++++++++",
"++++++++++++++++++++++++X++++++.XX...X.X......+++..++++++++++++++++++++++++",
"+++++++++++++++++++++++++++++++..X.X.X.X......+++..++++++++++++++++++++++++",
"+++++++++++++++++++++++++++++++..X.X.X.X....+.+++..++++++++++++++++++++++++",
"++++++++++++++++++++++++++++++++.XXX.X.X..+.+.+++..++++++++++++++++++++++++",
"+++++++++++++++++++++++++++++++++.XX.X+X..+++++++.+++++++++++++++++++++++++",
"+++++++++++++++++++++++++++++++++..X.X+X..+++++++.+++++++++++++++++++++++++",
"++++++++++++++++++++++++++++++++++.X.XXX+.++++++..+++++++++++++++++++++++++",
"++++++++++++++++++++++++++++++++++....XX+.++++++.++++++++++++++++++++++++++",
"+++++++++++++++++++++++++++++++++++..++XX++++++++++++++++++++++++++++++++++",
"++++++++++++++++++++++++++++++++++++++++X++++++++++++++++++++++++++++++++++",
"+++++++++++++++++++++++++++++++++++++++X+++++++++++++++++++++++++++++++++++",
"+++++++++++++++++++++++++++++++++++++++++++++++++++++++++++++++++++++++++++",
"+++++++++++++++++++++++++++++++++++++++++++++++++++++++++++++++++++++++++++",
"+++++++++++++++++++++++++++++++++++++++++++++++++++++++++++++++++++++++++++",
"+++++++++++++++++++++++++++++++++++++++++++++++++++++++++++++++++++++++++++",
"+++++++++++++++++++++++++++++++++++++++++++++++++++++++++++++++++++++++++++",
"+++++++++++++++++++++++++++++++++++++++++++++++++++++++++++++++++++++++++++",
"+++++++++++++++++++++++++++++++++++++++++++++++++++++++++++++++++++++++++++",
"+++++++++++++++++++++++++++++++++++++++++++++++++++++++++++++++++++++++++++",
"+++++++++++++++++++++++++++++++++++++++++++++++++++++++++++++++++++++++++++",
"+++++++++++++++++++++++++++++++++++++++++++++++++++++++++++++++++++++++++++",
"+++++++++++++++++++++++++++++++++++++++++++++++++++++++++++++++++++++++++++",
"+++++++++++++++++++++++++++++++++++++++++++++++++++++++++++++++++++++++++++"
};
