/* XPM */
static char *result[] = {
/* columns rows colors chars-per-pixel */
"32 32 14 1 ",
"  c #12061A",
". c #030421",
"X c #373E3F",
"o c #6D111E",
"O c #06520C",
"+ c #08610E",
"@ c #5B5068",
"# c #C33306",
"$ c #D74E5D",
"% c #63AE43",
"& c #7FC362",
"* c #CAB9BE",
"= c #EFEDED",
"- c #F8F8F8",
/* pixels */
"................................",
"................................",
"................................",
"................................",
"................................",
"...............oooo.............",
"..............$ooo  ............",
".............. ooo .............",
"..............   oo ............",
".............$  = o ............",
".............$    o ............",
".........#...o   oo  ...........",
"........#-..o o oo ooo..........",
".........#. oo o  o oo..........",
".........=$o ooo ooo  o.........",
".........* o  ooooo  oo.........",
".......... oooooooooooo.........",
".......... oo oo==@ooo .........",
".......... ooo  o %oo  .........",
"..........oo oo o% o  ..........",
"..........o. oo O+    ..........",
"..........o.  ooO+    ..........",
"..........o.. o  &    ..........",
"............. o     . ..........",
"..............  X ..............",
"............... o .. ...........",
"................................",
"................................",
"................................",
"................................",
"................................",
"................................"
};
