/* XPM */
static char *result[] = {
/* columns rows colors chars-per-pixel */
"32 32 5 1 ",
"  c #BABA30",
". c #FFBB00",
"X c yellow",
"o c #EEF069",
"O c None",
/* pixels */
"OOOOOOOOOOOOOOOOOOOOOOOOOOOOOOOO",
"OOOOOOOOOOOOOOOOOOOOOOOOOOOOOOOO",
"OOOOOOOOOOOOOOOOOOOOOOOOOOOOOOOO",
"OOOOOOOOOOOOOO     OOOOOOOOOOOOO",
"OOOOOOOOOOOOO       OOOOOOOOOOOO",
"OOOOOOOOOOOO   ooo   OOOOOOOOOOO",
"OOOOOOOOOOO   ooooo   OOOOOOOOOO",
"OOOOOOOOOO  oooXXXooo  OOOOOOOOO",
"OOOOOOOOO  oooXXXXXooo  OOOOOOOO",
"OOOOOOOO  oooXXXXXXXooo  OOOOOOO",
"OOOOOOO   ooXXXXXXXXXoo   OOOOOO",
"OOOOOOO  ooXXXXXXXXXXXoo  OOOOOO",
"OOOOOOO  ooXXXXXXXXXXXoo  OOOOOO",
"OOOOOO  ooXXXX..X.XXXXXoo  OOOOO",
"OOOOOO  ooXXXXX.X.XXXXXoo  OOOOO",
"OOOOOO  ooXXXXX...XXXXXoo  OOOOO",
"OOOOOO  ooXXXXX...XXXXXoo  OOOOO",
"OOOOOO  ooXXXXX..XXXXXXoo  OOOOO",
"OOOOOO  ooXXXX....XXXXXoo  OOOOO",
"OOOOOO  ooXXXX....XXXXXoo  OOOOO",
"OOOOOOO  ooXXXX..XXXXXoo  OOOOOO",
"OOOOOOO  ooXXX....XXXXoo  OOOOOO",
"OOOOOOO   ooXX....XXXoo   OOOOOO",
"OOOOOOOO  oooXX..XXXooo  OOOOOOO",
"OOOOOOOOO  oooXXXXXooo  OOOOOOOO",
"OOOOOOOOOO  oooXXXooo  OOOOOOOOO",
"OOOOOOOOOOO   ooooo   OOOOOOOOOO",
"OOOOOOOOOOOO   ooo   OOOOOOOOOOO",
"OOOOOOOOOOOOO       OOOOOOOOOOOO",
"OOOOOOOOOOOOOO     OOOOOOOOOOOOO",
"OOOOOOOOOOOOOOOOOOOOOOOOOOOOOOOO",
"OOOOOOOOOOOOOOOOOOOOOOOOOOOOOOOO"
};
