/* XPM */
static char *result[] = {
/* columns rows colors chars-per-pixel */
"32 32 5 1 ",
"  c #BABA30",
". c #FFBB00",
"X c yellow",
"o c #EEF069",
"O c None",
/* pixels */
"OOOOOOOOOOOOOOOOOOOOOOOOOOOOOOOO",
"OOOOOOOOOOOOOOOOOOOOOOOOOOOOOOOO",
"OOOOOOOOOOOOOOOOOOOOOOOOOOOOOOOO",
"OOOOOOOOOOOOO       OOOOOOOOOOOO",
"OOOOOOOOOOO           OOOOOOOOOO",
"OOOOOOOOOO   ooooooo   OOOOOOOOO",
"OOOOOOOOO   ooooooooo   OOOOOOOO",
"OOOOOOOO  oooXXXXXXXooo  OOOOOOO",
"OOOOOOO  oooXXXXXXXXXooo  OOOOOO",
"OOOOOO  oooXXXXXXXXXXXooo  OOOOO",
"OOOOO   ooXXXXXXXXXXXXXoo   OOOO",
"OOOOO  ooXXX..XXXX..XXXXoo  OOOO",
"OOOOO  ooXXX..XXXX..XXXXoo  OOOO",
"OOOO  ooXXXX...XX...XXXXXoo  OOO",
"OOOO  ooXXXXX..XX..XXXXXXoo  OOO",
"OOOO  ooXXXXX......XXXXXXoo  OOO",
"OOOO  ooXXXXXX....XXXXXXXoo  OOO",
"OOOO  ooXXXXXXX..XXXXXXXXoo  OOO",
"OOOO  ooXXXXXX....XXXXXXXoo  OOO",
"OOOO  ooXXXXX......XXXXXXoo  OOO",
"OOOOO  ooXXXXXX..XXXXXXXoo  OOOO",
"OOOOO  ooXXXX......XXXXXoo  OOOO",
"OOOOO   ooXXXX....XXXXXoo   OOOO",
"OOOOOO  oooXXXX..XXXXXooo  OOOOO",
"OOOOOOO  oooXXXXXXXXXooo  OOOOOO",
"OOOOOOOO  oooXXXXXXXooo  OOOOOOO",
"OOOOOOOOO   ooooooooo   OOOOOOOO",
"OOOOOOOOOO   ooooooo   OOOOOOOOO",
"OOOOOOOOOOO           OOOOOOOOOO",
"OOOOOOOOOOOOO       OOOOOOOOOOOO",
"OOOOOOOOOOOOOOOOOOOOOOOOOOOOOOOO",
"OOOOOOOOOOOOOOOOOOOOOOOOOOOOOOOO"
};
